PathFileType	4	(X/Y/Z)	C:/ViconProjects/foot_20160225/trc/2_test01_dynamic.trc
DataRate	CameraRate	NumFrames	NumMarkers	Units	OrigDataRate	OrigDataStartFrame	OrigNumFrames
120.000000	120.000000	4	39	mm	120.000000	427	682
Frame#	Time	RCUNE			RNAVI			RMT3			LCUNE			LNAVI			LMT3			ROHEL			RIHEL			LOHEL			LIHEL			RSHAN			LSHAN			RTHI			LTHI			ROWR			RELB			RBSH			LOWR			LELB			LBSH			RHEAD			THEAD			FHEAD			T10			RTOE			RHEL			RMT1			RMT5			RANK			RKNE			LTOE			LHEL			LMT1			LMT5			LANK			LKNE			VBWT			RFWT			LFWT			
		X0	Y0	Z0	X1	Y1	Z1	X2	Y2	Z2	X3	Y3	Z3	X4	Y4	Z4	X5	Y5	Z5	X6	Y6	Z6	X7	Y7	Z7	X8	Y8	Z8	X9	Y9	Z9	X10	Y10	Z10	X11	Y11	Z11	X12	Y12	Z12	X13	Y13	Z13	X14	Y14	Z14	X15	Y15	Z15	X16	Y16	Z16	X17	Y17	Z17	X18	Y18	Z18	X19	Y19	Z19	X20	Y20	Z20	X21	Y21	Z21	X22	Y22	Z22	X23	Y23	Z23	X24	Y24	Z24	X25	Y25	Z25	X26	Y26	Z26	X27	Y27	Z27	X28	Y28	Z28	X29	Y29	Z29	X30	Y30	Z30	X31	Y31	Z31	X32	Y32	Z32	X33	Y33	Z33	X34	Y34	Z34	X35	Y35	Z35	X36	Y36	Z36	X37	Y37	Z37	X38	Y38	Z38	
427	3.558333	270.794647	314.066132	38.119339	251.173309	215.670029	56.823101	166.136383	294.026886	37.050072	-277.705475	27.043871	60.696869	-295.331970	124.251404	91.957893	-364.219269	39.220570	105.408829	340.760315	282.500183	56.970268	326.905365	210.340988	57.775871	-207.275177	65.594231	45.550758	-221.946045	135.383545	55.243481	202.602112	242.820023	224.822281	-220.131134	103.287392	354.467224	30.958269	295.845428	537.006226	-174.404846	86.417343	657.734436	-221.428741	505.178009	948.903015	-3.062540	540.540283	1085.988403	1.341480	401.793060	1395.441895	157.131180	-155.322739	856.442932	136.164322	-113.282158	1111.082397	0.054010	-3.848190	1390.815308	41.898350	218.999496	1631.736572	-72.799744	212.848450	1689.901855	-174.384155	196.700729	1596.483521	160.324921	145.245560	1259.832642	116.156059	278.095337	35.509079	371.306549	237.302261	62.454060	156.578506	256.899078	43.293560	207.247238	336.026642	32.665581	304.142212	303.869659	75.357437	146.994965	330.643707	446.586212	-406.439850	57.001751	124.586418	-186.653381	108.634903	38.215351	-378.032562	73.344528	113.994408	-330.522705	13.971820	85.509438	-230.195496	42.086380	80.905609	-156.787521	32.541401	481.134247	196.323090	182.547455	925.580688	-13.504540	353.099976	920.006714	-40.748730	65.789268	925.131470
428	3.566667	270.337524	314.332489	39.040920	250.377350	215.965363	57.829090	165.956161	294.098602	37.041950	-304.588776	27.231920	62.157829	-320.633057	123.745583	93.893677	-390.016327	39.508209	110.177269	340.143066	282.272614	59.178699	326.242676	210.188477	60.145149	-233.772171	64.714310	45.167641	-247.957748	134.718002	55.532131	199.027527	243.329254	224.669434	-236.156906	103.959663	353.918945	24.712280	295.654633	534.001892	-185.374573	87.379471	652.750671	-237.735733	504.747284	950.104858	-17.297819	540.172607	1083.849976	-10.528850	400.941193	1392.498657	149.990234	-156.357208	856.132019	126.401337	-113.912216	1110.026489	-11.762670	-4.677160	1388.486572	29.991510	218.448441	1629.173096	-85.008842	212.352402	1687.403931	-186.700241	195.751282	1593.744629	148.028534	144.444794	1257.240356	116.117203	278.297607	35.658989	370.713440	237.477341	65.543800	156.506439	257.005707	43.211079	207.301300	336.007050	32.607971	304.830872	304.558746	77.248100	140.201401	330.498138	445.778625	-431.367615	57.426910	129.976395	-212.047150	107.205116	37.713089	-401.639893	73.686089	119.068733	-356.673035	13.797250	88.592178	-257.821045	42.075279	80.748199	-168.947021	33.893909	478.426392	183.194321	181.125839	923.352478	-26.049610	352.504456	918.157349	-53.770061	65.390282	922.740479
429	3.575000	269.973846	314.462646	39.831219	249.917358	216.207092	59.108189	165.732819	294.201233	37.132488	-329.528503	26.585180	63.875141	-343.677948	123.811142	95.722687	-413.356903	39.887791	113.937401	341.098724	283.614471	62.088371	325.665283	210.321686	62.571758	-258.526154	63.928951	45.074131	-272.242798	133.724655	55.274101	194.788345	243.380890	224.740921	-251.449005	104.776672	353.536713	15.915980	296.381653	532.012817	-196.564301	88.784714	647.930664	-252.754791	504.424744	950.888123	-30.814480	539.292908	1081.274170	-22.910191	399.836243	1389.770996	142.270035	-158.221207	855.163940	116.272263	-114.734619	1108.916504	-23.547630	-5.595750	1386.369629	17.309601	217.977783	1626.696533	-97.014343	211.474609	1684.833862	-198.981583	194.681335	1591.286255	135.860336	142.920776	1254.146118	116.413361	277.882111	35.023239	369.668030	237.832230	68.479362	156.430649	257.221619	43.147091	207.003281	335.989014	32.333542	304.109955	304.910400	79.342934	132.635468	330.686981	445.185272	-454.300110	58.574162	134.945404	-238.111725	105.833420	36.389431	-424.318451	74.212250	123.079048	-380.946960	14.060140	91.896873	-281.783600	41.704868	81.467949	-181.258453	34.660210	475.996368	170.468887	179.689011	920.602966	-38.222488	352.057098	916.127686	-67.627983	64.971291	920.273132
430	3.583333	269.587372	314.754120	41.051781	248.927155	216.445847	60.653679	165.682266	294.341003	37.143059	-351.748993	26.425020	65.069267	-364.891693	123.875763	97.122833	-434.559753	40.384472	117.011726	338.468811	282.656372	64.500252	324.524963	210.623734	65.293198	-281.557709	63.312469	44.102970	-294.344238	133.768555	54.473091	191.166336	243.912842	224.532288	-266.282990	105.249687	352.655487	6.106180	297.428741	530.127502	-208.105835	90.519096	643.489807	-268.180725	503.040833	951.877319	-44.314240	538.495789	1079.229248	-34.807030	398.623322	1387.220215	134.344727	-159.942154	854.331543	105.318382	-115.897209	1107.595215	-35.761539	-6.674960	1384.274658	5.818310	216.767609	1624.419434	-109.223663	210.797821	1682.409546	-211.022141	194.080399	1588.720947	122.971252	142.101974	1251.424194	116.477478	277.446960	34.013901	369.392120	238.114548	72.056068	156.258301	257.412140	43.167542	207.236130	335.954956	32.409019	302.797668	305.044189	81.485893	125.038612	331.050659	444.440796	-474.732056	59.767220	138.926270	-260.153168	105.347633	35.337231	-445.165222	75.115257	126.486328	-402.756744	14.400150	94.213287	-303.678162	41.799831	82.127701	-194.626801	35.380322	473.835083	157.366592	178.000748	918.333618	-50.621738	351.939972	913.903015	-81.514519	64.723984	918.252319
